<?xml version="1.0" standalone="yes"?>

<svg version="1.1" viewBox="0.0 0.0 187.76902887139107 132.41994750656167" fill="none" stroke="none" stroke-linecap="square" stroke-miterlimit="10" xmlns="http://www.w3.org/2000/svg" xmlns:xlink="http://www.w3.org/1999/xlink"><clipPath id="p.0"><path d="m0 0l187.76903 0l0 132.41995l-187.76903 0l0 -132.41995z" clip-rule="nonzero"></path></clipPath><g clip-path="url(#p.0)"><path fill="#000000" fill-opacity="0.0" d="m0 0l187.76903 0l0 132.41995l-187.76903 0z" fill-rule="evenodd"></path><path fill="#ffffff" d="m27.67979 66.20998l0 0c0 -36.56386 29.640865 -66.20473 66.20473 -66.20473l0 0c17.558586 0 34.398018 6.9751205 46.813805 19.390915c12.415802 12.415794 19.390915 29.255226 19.390915 46.813812l0 0c0 36.563858 -29.640854 66.20473 -66.20472 66.20473l0 0c-36.563858 0 -66.20473 -29.64087 -66.20473 -66.20473z" fill-rule="evenodd"></path><path fill="#ff9900" d="m63.403175 25.672873l0 0c0.55729675 -2.079548 2.6948242 -3.3133545 4.7742996 -2.755785l58.485306 15.681652c0.9985962 0.2677536 1.8499756 0.9212456 2.3668518 1.816719c0.5168915 0.89546967 0.6569061 1.959568 0.38928223 2.9581985l-14.989716 55.93386c-0.55729675 2.0795517 -2.6948242 3.3133545 -4.774292 2.7557907l-58.48531 -15.681656c-2.0794754 -0.5575714 -3.3134422 -2.6953735 -2.7561417 -4.7749176z" fill-rule="evenodd"></path><path stroke="#ff9900" stroke-width="3.0" stroke-linejoin="round" stroke-linecap="butt" d="m63.403175 25.672873l0 0c0.55729675 -2.079548 2.6948242 -3.3133545 4.7742996 -2.755785l58.485306 15.681652c0.9985962 0.2677536 1.8499756 0.9212456 2.3668518 1.816719c0.5168915 0.89546967 0.6569061 1.959568 0.38928223 2.9581985l-14.989716 55.93386c-0.55729675 2.0795517 -2.6948242 3.3133545 -4.774292 2.7557907l-58.48531 -15.681656c-2.0794754 -0.5575714 -3.3134422 -2.6953735 -2.7561417 -4.7749176z" fill-rule="evenodd"></path><path fill="#ff9900" d="m126.3301 62.478283c6.2445755 -0.771122 12.2285385 2.748127 14.589592 8.580341c2.3610687 5.8322067 0.5104828 12.523125 -4.511902 16.313217c-5.0224 3.7901 -11.964287 3.734314 -16.925133 -0.13599396z" fill-rule="evenodd"></path><path stroke="#ff9900" stroke-width="3.0" stroke-linejoin="round" stroke-linecap="butt" d="m126.3301 62.478283c6.2445755 -0.771122 12.2285385 2.748127 14.589592 8.580341c2.3610687 5.8322067 0.5104828 12.523125 -4.511902 16.313217c-5.0224 3.7901 -11.964287 3.734314 -16.925133 -0.13599396z" fill-rule="evenodd"></path><path fill="#ff9900" d="m67.85117 91.41353c-3.7900848 5.019844 -3.7360077 11.959496 0.13184357 16.91967c3.8678513 4.960182 10.585037 6.704056 16.377274 4.2517853c5.7922363 -2.4522705 9.215233 -8.489227 8.345657 -14.718788z" fill-rule="evenodd"></path><path stroke="#ff9900" stroke-width="3.0" stroke-linejoin="round" stroke-linecap="butt" d="m67.85117 91.41353c-3.7900848 5.019844 -3.7360077 11.959496 0.13184357 16.91967c3.8678513 4.960182 10.585037 6.704056 16.377274 4.2517853c5.7922363 -2.4522705 9.215233 -8.489227 8.345657 -14.718788z" fill-rule="evenodd"></path><path fill="#ffffff" d="m57.468155 40.5218c6.6294556 -0.5100632 12.958801 3.22221 15.46978 9.122185c2.510971 5.899975 0.586113 12.5168 -4.704628 16.17242c-5.290737 3.6556168 -12.64632 3.4510803 -17.978035 -0.49990845z" fill-rule="evenodd"></path><path fill="#ffffff" d="m86.009865 25.076172c-3.754921 5.485441 -3.6853638 12.832043 0.1700058 17.956066c3.8553696 5.1240273 10.548485 6.7654305 16.358864 4.0118065c5.8103714 -2.7536201 9.309181 -9.225124 8.551552 -15.817213z" fill-rule="evenodd"></path></g></svg>

