<?xml version="1.0" standalone="yes"?>

<svg version="1.1" viewBox="0.0 0.0 187.76902887139107 132.41994750656167" fill="none" stroke="none" stroke-linecap="square" stroke-miterlimit="10" xmlns="http://www.w3.org/2000/svg" xmlns:xlink="http://www.w3.org/1999/xlink"><clipPath id="p.0"><path d="m0 0l187.76903 0l0 132.41995l-187.76903 0l0 -132.41995z" clip-rule="nonzero"></path></clipPath><g clip-path="url(#p.0)"><path fill="#000000" fill-opacity="0.0" d="m0 0l187.76903 0l0 132.41995l-187.76903 0z" fill-rule="evenodd"></path><path fill="#cccccc" d="m4.5414615 110.61945l25.885017 -26.08992l0 0c-13.20192 -31.103203 5.005741 -65.21923 42.064198 -78.81646c37.058456 -13.597223 80.83963 -2.2256987 101.14534 26.271032c20.305725 28.49673 10.49054 64.79259 -22.675491 83.852394c-33.166016 19.0598 -78.82868 14.645889 -105.49204 -10.197243z" fill-rule="evenodd"></path><path fill="#cccccc" d="m29.572346 96.13835l-8.74296 -2.2872238c0.9657192 0.25263977 3.0322304 -4.448784 4.6156807 -10.500931c1.5834503 -6.0521393 2.084219 -11.1631775 1.1184978 -11.415817l8.742962 2.2872314l0 0c0.96572113 0.25263977 0.46495056 5.363678 -1.1184998 11.415817c-1.5834503 6.0521393 -3.6499596 10.753571 -4.6156807 10.500923z" fill-rule="evenodd"></path><path fill="#cccccc" d="m56.4122 104.20376l-2.3387794 8.729309c0.2583351 -0.9642105 -4.430813 -3.058426 -10.473507 -4.6775665c-6.0426903 -1.619133 -11.150684 -2.1500473 -11.409019 -1.1858368l2.3387794 -8.729309l0 0c0.2583351 -0.96421814 5.366329 -0.4332962 11.409019 1.1858368c6.042694 1.619133 10.731842 3.7133484 10.473507 4.6775665z" fill-rule="evenodd"></path><path fill="#cccccc" d="m73.24147 92.08399l0 0c0 -3.3398056 2.7074432 -6.047249 6.047241 -6.047249l0 0c1.6038284 0 3.1419678 0.6371231 4.2760468 1.7712021c1.134079 1.134079 1.7712021 2.6722183 1.7712021 4.2760468l0 0c0 3.339798 -2.7074432 6.047241 -6.047249 6.047241l0 0c-3.339798 0 -6.047241 -2.7074432 -6.047241 -6.047241z" fill-rule="evenodd"></path><path fill="#1155cc" d="m134.57867 20.112577l14.309647 14.3096485c0.41627502 0.41627884 0.6501465 0.9808769 0.6501465 1.5695877c0 0.588707 -0.23387146 1.153305 -0.6501465 1.5695839l-7.8477325 7.8477364c-7.6293945E-5 8.010864E-5 -2.1362305E-4 8.010864E-5 -2.89917E-4 0l-17.448532 -17.448818l0 0c-7.6293945E-5 -8.010864E-5 -7.6293945E-5 -2.0980835E-4 0 -2.89917E-4l7.8477325 -7.8474483l0 0c0.86686707 -0.8668575 2.2723236 -0.8668575 3.1391754 0z" fill-rule="evenodd"></path><path fill="#1155cc" d="m94.767624 91.660965l-26.173225 8.724411l8.724411 -26.173225z" fill-rule="evenodd"></path><path fill="#1155cc" d="m83.054886 76.11728l-3.0445862 -3.0445938l0 0c-0.20187378 -0.20187378 -0.31528473 -0.47566986 -0.31528473 -0.76116943c0 -0.28549194 0.11341095 -0.55929565 0.31528473 -0.76116943l41.97899 -41.978985c2.2888184E-5 -2.0980835E-5 5.340576E-5 -2.0980835E-5 7.6293945E-5 0l4.5668488 4.566929l0 0c2.2888184E-5 1.9073486E-5 2.2888184E-5 5.340576E-5 0 7.6293945E-5l-41.97898 41.978912l0 0c-0.42038727 0.42037964 -1.1019592 0.42037964 -1.5223465 0z" fill-rule="evenodd"></path><path fill="#1155cc" d="m89.49769 82.56008l-3.0445862 -3.0445938l0 0c-0.20187378 -0.20187378 -0.31528473 -0.4756775 -0.31528473 -0.76116943c0 -0.28549194 0.11341095 -0.55929565 0.31528473 -0.76116943l41.97898 -41.97899c3.0517578E-5 -1.9073486E-5 6.1035156E-5 -1.9073486E-5 7.6293945E-5 0l4.566864 4.5669327l0 0c1.5258789E-5 1.9073486E-5 1.5258789E-5 5.340576E-5 0 7.247925E-5l-41.978996 41.978916l0 0c-0.42037964 0.42037964 -1.1019516 0.42037964 -1.5223389 0z" fill-rule="evenodd"></path><path fill="#1155cc" d="m95.94049 89.00288l-3.0445862 -3.0445862l0 0c-0.20187378 -0.20187378 -0.31529236 -0.4756775 -0.31529236 -0.76116943c0 -0.28549194 0.11341858 -0.55929565 0.31529236 -0.76116943l41.97899 -41.97899c1.5258789E-5 -1.9073486E-5 4.5776367E-5 -1.9073486E-5 7.6293945E-5 0l4.5668488 4.566929l0 0c1.5258789E-5 2.2888184E-5 1.5258789E-5 5.722046E-5 0 7.6293945E-5l-41.97899 41.97891l0 0c-0.42037964 0.42038727 -1.1019516 0.42038727 -1.5223389 0z" fill-rule="evenodd"></path></g></svg>

