<?xml version="1.0" standalone="yes"?>

<svg version="1.1" viewBox="0.0 0.0 187.76902887139107 132.41994750656167" fill="none" stroke="none" stroke-linecap="square" stroke-miterlimit="10" xmlns="http://www.w3.org/2000/svg" xmlns:xlink="http://www.w3.org/1999/xlink"><clipPath id="p.0"><path d="m0 0l187.76903 0l0 132.41995l-187.76903 0l0 -132.41995z" clip-rule="nonzero"></path></clipPath><g clip-path="url(#p.0)"><path fill="#000000" fill-opacity="0.0" d="m0 0l187.76903 0l0 132.41995l-187.76903 0z" fill-rule="evenodd"></path><path fill="#cccccc" d="m4.5414615 110.61945l25.885017 -26.08992l0 0c-13.20192 -31.103203 5.005741 -65.21923 42.064198 -78.81646c37.058456 -13.597223 80.83963 -2.2256987 101.14534 26.271032c20.305725 28.49673 10.49054 64.79259 -22.675491 83.852394c-33.166016 19.0598 -78.82868 14.645889 -105.49204 -10.197243z" fill-rule="evenodd"></path><path fill="#cccccc" d="m29.572346 96.13835l-8.74296 -2.2872238c0.9657192 0.25263977 3.0322304 -4.448784 4.6156807 -10.500931c1.5834503 -6.0521393 2.084219 -11.1631775 1.1184978 -11.415817l8.742962 2.2872314l0 0c0.96572113 0.25263977 0.46495056 5.363678 -1.1184998 11.415817c-1.5834503 6.0521393 -3.6499596 10.753571 -4.6156807 10.500923z" fill-rule="evenodd"></path><path fill="#cccccc" d="m56.4122 104.20376l-2.3387794 8.729309c0.2583351 -0.9642105 -4.430813 -3.058426 -10.473507 -4.6775665c-6.0426903 -1.619133 -11.150684 -2.1500473 -11.409019 -1.1858368l2.3387794 -8.729309l0 0c0.2583351 -0.96421814 5.366329 -0.4332962 11.409019 1.1858368c6.042694 1.619133 10.731842 3.7133484 10.473507 4.6775665z" fill-rule="evenodd"></path><path fill="#980000" d="m73.62925 80.06899l16.242218 -16.242222l-16.242218 -16.242218l15.289856 -15.289852l16.242218 16.242218l16.242218 -16.242218l15.289848 15.289852l-16.242218 16.242218l16.242218 16.242222l-15.289848 15.289848l-16.242218 -16.242218l-16.242218 16.242218z" fill-rule="evenodd"></path></g></svg>

