<svg xmlns="http://www.w3.org/2000/svg" viewBox="0 0 360 360"><defs><style>.cls-1,.cls-2{fill:none;}.cls-1,.cls-2,.cls-3,.cls-4{stroke:#000;stroke-miterlimit:10;}.cls-1{stroke-width:9px;}.cls-2{stroke-width:4px;}.cls-4,.cls-5{fill:#fff;}.cls-6{font-size:43.91px;font-family:Arial-Black, Arial Black;}</style></defs><title>compass</title><g id="rings"><ellipse class="cls-1" cx="180.62" cy="182.74" rx="92.42" ry="89.65"/><ellipse class="cls-2" cx="179.75" cy="181.92" rx="79.07" ry="76.71"/></g><g id="points"><polygon class="cls-3" points="179.5 180.5 160.42 161.42 179.5 69 179.5 180.5"/><polygon class="cls-3" points="179.5 180.5 160.42 199.58 68 180.5 179.5 180.5"/><polygon class="cls-3" points="179.5 180.5 198.58 199.58 179.5 292 179.5 180.5"/><polygon class="cls-4" points="179.5 180.5 160.42 161.42 68 180.5 179.5 180.5"/><polygon class="cls-4" points="179.5 180.5 198.58 161.42 179.5 69 179.5 180.5"/><polygon class="cls-4" points="179.5 180.5 198.58 199.58 291 180.5 179.5 180.5"/><polygon class="cls-4" points="179.5 180.5 160.42 199.58 179.5 292 179.5 180.5"/><polygon class="cls-3" points="179.5 180.5 198.58 161.42 291 180.5 179.5 180.5"/></g><g id="logo"><path class="cls-5" d="M179.87,203.57a23.44,23.44,0,1,1,23.44-23.44A23.47,23.47,0,0,1,179.87,203.57Z"/><path d="M179.87,160.19a19.94,19.94,0,1,1-19.94,19.94,20,20,0,0,1,19.94-19.94m0-7a26.94,26.94,0,1,0,26.94,26.94,26.94,26.94,0,0,0-26.94-26.94Z"/><ellipse cx="170.08" cy="171.7" rx="3.92" ry="3.74"/><path d="M167.51,177H173v14.43h-5.53Z"/><path d="M175.86,184.85l5.86-.37a4.47,4.47,0,0,0,.77,2.17,3.26,3.26,0,0,0,2.72,1.21,3,3,0,0,0,2-.62,1.85,1.85,0,0,0,.71-1.43,1.83,1.83,0,0,0-.68-1.39,7.87,7.87,0,0,0-3.15-1.16,13.39,13.39,0,0,1-5.78-2.42,4.86,4.86,0,0,1-1.74-3.85,5.22,5.22,0,0,1,.89-2.9,5.91,5.91,0,0,1,2.68-2.15,12.5,12.5,0,0,1,4.9-.78,10,10,0,0,1,5.82,1.42,6.13,6.13,0,0,1,2.38,4.52l-5.8.34a2.71,2.71,0,0,0-3-2.57,2.47,2.47,0,0,0-1.62.46,1.4,1.4,0,0,0-.54,1.11,1.11,1.11,0,0,0,.45.86,5,5,0,0,0,2.07.73,25.84,25.84,0,0,1,5.78,1.76,6.08,6.08,0,0,1,2.54,2.21,5.6,5.6,0,0,1,.79,2.95,6.31,6.31,0,0,1-1.06,3.53,6.63,6.63,0,0,1-3,2.45,12,12,0,0,1-4.8.84q-5.08,0-7-2A7.72,7.72,0,0,1,175.86,184.85Z"/></g><g id="labels"><text class="cls-6" transform="translate(165.07 54.53)">N</text><text class="cls-6" transform="translate(302.07 194.53)">E</text><text class="cls-6" transform="translate(165.07 334.53)">S</text><text class="cls-6" transform="translate(15.07 194.53)">W</text></g></svg>