<?xml version="1.0" encoding="UTF-8" standalone="no"?>
<!-- Created with Inkscape (http://www.inkscape.org/) -->
<svg
   xmlns:dc="http://purl.org/dc/elements/1.1/"
   xmlns:cc="http://web.resource.org/cc/"
   xmlns:rdf="http://www.w3.org/1999/02/22-rdf-syntax-ns#"
   xmlns:svg="http://www.w3.org/2000/svg"
   xmlns="http://www.w3.org/2000/svg"
   xmlns:xlink="http://www.w3.org/1999/xlink"
   xmlns:sodipodi="http://inkscape.sourceforge.net/DTD/sodipodi-0.dtd"
   xmlns:inkscape="http://www.inkscape.org/namespaces/inkscape"
   width="36.000000px"
   height="36.000000px"
   id="svg2"
   sodipodi:version="0.32"
   inkscape:version="0.42"
   sodipodi:docbase="G:\Projs\Cliparts Stocker\released"
   sodipodi:docname="add.svg"
   inkscape:export-filename="/datas/wiki/add.png"
   inkscape:export-xdpi="90.000000"
   inkscape:export-ydpi="90.000000">
  <defs
     id="defs4">
    <linearGradient
       id="linearGradient1378">
      <stop
         style="stop-color:#b0ffa5;stop-opacity:1.0000000;"
         offset="0.0000000"
         id="stop1380" />
      <stop
         style="stop-color:#26bc14;stop-opacity:0.44705883;"
         offset="1.0000000"
         id="stop1382" />
    </linearGradient>
    <linearGradient
       id="linearGradient1365">
      <stop
         id="stop1367"
         offset="0.0000000"
         style="stop-color:#24f00a;stop-opacity:1.0000000;" />
      <stop
         id="stop1370"
         offset="1.0000000"
         style="stop-color:#0b6400;stop-opacity:1.0000000;" />
    </linearGradient>
    <linearGradient
       id="linearGradient1352">
      <stop
         style="stop-color:#179807;stop-opacity:1.0000000;"
         offset="0.0000000"
         id="stop1354" />
      <stop
         style="stop-color:#0b5102;stop-opacity:1.0000000;"
         offset="1.0000000"
         id="stop1356" />
    </linearGradient>
    <linearGradient
       id="linearGradient1367">
      <stop
         id="stop1369"
         offset="0.0000000"
         style="stop-color:#f67e36;stop-opacity:1.0000000;" />
      <stop
         id="stop1371"
         offset="1.0000000"
         style="stop-color:#602604;stop-opacity:1.0000000;" />
    </linearGradient>
    <linearGradient
       id="linearGradient1347">
      <stop
         style="stop-color:#f0da27;stop-opacity:1.0000000;"
         offset="0.0000000"
         id="stop1349" />
      <stop
         style="stop-color:#bf4d09;stop-opacity:1.0000000;"
         offset="1.0000000"
         id="stop1351" />
    </linearGradient>
    <linearGradient
       id="linearGradient1315">
      <stop
         style="stop-color:#97ff82;stop-opacity:1.0000000;"
         offset="0.0000000"
         id="stop1317" />
      <stop
         style="stop-color:#ceff24;stop-opacity:0.0000000;"
         offset="1.0000000"
         id="stop1319" />
    </linearGradient>
    <linearGradient
       id="linearGradient2122">
      <stop
         style="stop-color:#2edc32;stop-opacity:1.0000000;"
         offset="0.0000000"
         id="stop2124" />
      <stop
         style="stop-color:#11661d;stop-opacity:1.0000000;"
         offset="1.0000000"
         id="stop2126" />
    </linearGradient>
    <linearGradient
       id="linearGradient1364">
      <stop
         style="stop-color:#236b0d;stop-opacity:1.0000000;"
         offset="0.00000000"
         id="stop1366" />
      <stop
         style="stop-color:#081b04;stop-opacity:1.0000000;"
         offset="1.0000000"
         id="stop1368" />
    </linearGradient>
    <linearGradient
       inkscape:collect="always"
       xlink:href="#linearGradient1364"
       id="linearGradient1341"
       gradientUnits="userSpaceOnUse"
       x1="74.910713"
       y1="32.362179"
       x2="84.910713"
       y2="47.451466" />
    <linearGradient
       inkscape:collect="always"
       xlink:href="#linearGradient2122"
       id="linearGradient1343"
       gradientUnits="userSpaceOnUse"
       x1="73.839287"
       y1="34.428566"
       x2="76.875000"
       y2="43.714283" />
    <linearGradient
       inkscape:collect="always"
       xlink:href="#linearGradient1315"
       id="linearGradient1345"
       gradientUnits="userSpaceOnUse"
       x1="72.946426"
       y1="35.589287"
       x2="85.000000"
       y2="47.375000" />
    <radialGradient
       inkscape:collect="always"
       xlink:href="#linearGradient1347"
       id="radialGradient1353"
       cx="21.959658"
       cy="14.921703"
       fx="21.959658"
       fy="14.921703"
       r="27.500000"
       gradientUnits="userSpaceOnUse"
       gradientTransform="matrix(1.211118e-16,1.330643,-1.347411,2.027373e-5,44.09678,-13.39507)" />
    <radialGradient
       inkscape:collect="always"
       xlink:href="#linearGradient1367"
       id="radialGradient1357"
       gradientUnits="userSpaceOnUse"
       gradientTransform="matrix(1.211118e-16,1.330643,-1.347411,2.027373e-5,44.09678,-13.39507)"
       cx="21.959658"
       cy="14.921703"
       fx="21.959658"
       fy="14.921703"
       r="27.500000" />
    <radialGradient
       inkscape:collect="always"
       xlink:href="#linearGradient1367"
       id="radialGradient1375"
       gradientUnits="userSpaceOnUse"
       gradientTransform="matrix(1.211118e-16,1.330643,-1.347411,2.027373e-5,44.09678,-13.39507)"
       cx="21.959658"
       cy="14.921703"
       fx="21.959658"
       fy="14.921703"
       r="27.500000" />
    <radialGradient
       inkscape:collect="always"
       xlink:href="#linearGradient1367"
       id="radialGradient1381"
       gradientUnits="userSpaceOnUse"
       gradientTransform="matrix(1.211118e-16,1.330643,-1.347411,2.027373e-5,44.09678,-13.39507)"
       cx="21.959658"
       cy="14.921703"
       fx="21.959658"
       fy="14.921703"
       r="27.500000" />
    <radialGradient
       inkscape:collect="always"
       xlink:href="#linearGradient1347"
       id="radialGradient1383"
       gradientUnits="userSpaceOnUse"
       gradientTransform="matrix(1.211118e-16,1.330643,-1.347411,2.027373e-5,44.09678,-13.39507)"
       cx="21.959658"
       cy="14.921703"
       fx="21.959658"
       fy="14.921703"
       r="27.500000" />
    <linearGradient
       inkscape:collect="always"
       xlink:href="#linearGradient1352"
       id="linearGradient1358"
       x1="20.152672"
       y1="13.745695"
       x2="40.305344"
       y2="48.977100"
       gradientUnits="userSpaceOnUse" />
    <linearGradient
       inkscape:collect="always"
       xlink:href="#linearGradient1365"
       id="linearGradient1362"
       gradientUnits="userSpaceOnUse"
       x1="20.152672"
       y1="13.745695"
       x2="40.305344"
       y2="48.977100" />
    <linearGradient
       inkscape:collect="always"
       xlink:href="#linearGradient1365"
       id="linearGradient1374"
       gradientUnits="userSpaceOnUse"
       x1="20.152672"
       y1="13.745695"
       x2="40.305344"
       y2="48.977100" />
    <linearGradient
       inkscape:collect="always"
       xlink:href="#linearGradient1378"
       id="linearGradient1384"
       x1="21.251909"
       y1="17.587786"
       x2="42.748093"
       y2="46.167938"
       gradientUnits="userSpaceOnUse" />
    <linearGradient
       inkscape:collect="always"
       xlink:href="#linearGradient1352"
       id="linearGradient1391"
       gradientUnits="userSpaceOnUse"
       x1="20.152672"
       y1="13.745695"
       x2="40.305344"
       y2="48.977100" />
    <linearGradient
       inkscape:collect="always"
       xlink:href="#linearGradient1365"
       id="linearGradient1393"
       gradientUnits="userSpaceOnUse"
       x1="20.152672"
       y1="13.745695"
       x2="40.305344"
       y2="48.977100" />
    <linearGradient
       inkscape:collect="always"
       xlink:href="#linearGradient1378"
       id="linearGradient1395"
       gradientUnits="userSpaceOnUse"
       x1="21.251909"
       y1="17.587786"
       x2="42.748093"
       y2="46.167938" />
    <linearGradient
       inkscape:collect="always"
       xlink:href="#linearGradient1352"
       id="linearGradient1400"
       gradientUnits="userSpaceOnUse"
       x1="20.152672"
       y1="13.745695"
       x2="40.305344"
       y2="48.977100" />
    <linearGradient
       inkscape:collect="always"
       xlink:href="#linearGradient1378"
       id="linearGradient1402"
       gradientUnits="userSpaceOnUse"
       x1="20.030535"
       y1="13.923663"
       x2="42.748093"
       y2="46.167938" />
    <linearGradient
       inkscape:collect="always"
       xlink:href="#linearGradient1352"
       id="linearGradient1409"
       gradientUnits="userSpaceOnUse"
       x1="20.152672"
       y1="13.745695"
       x2="40.305344"
       y2="48.977100" />
    <linearGradient
       inkscape:collect="always"
       xlink:href="#linearGradient1365"
       id="linearGradient1411"
       gradientUnits="userSpaceOnUse"
       x1="20.152672"
       y1="13.745695"
       x2="40.305344"
       y2="48.977100" />
    <linearGradient
       inkscape:collect="always"
       xlink:href="#linearGradient1378"
       id="linearGradient1413"
       gradientUnits="userSpaceOnUse"
       x1="20.030535"
       y1="13.923663"
       x2="42.748093"
       y2="46.167938" />
    <linearGradient
       inkscape:collect="always"
       xlink:href="#linearGradient1352"
       id="linearGradient1418"
       gradientUnits="userSpaceOnUse"
       x1="20.152672"
       y1="13.745695"
       x2="40.305344"
       y2="48.977100" />
    <linearGradient
       inkscape:collect="always"
       xlink:href="#linearGradient1378"
       id="linearGradient1422"
       gradientUnits="userSpaceOnUse"
       x1="20.152672"
       y1="18.931297"
       x2="43.480919"
       y2="43.603050" />
    <linearGradient
       inkscape:collect="always"
       xlink:href="#linearGradient1352"
       id="linearGradient1429"
       gradientUnits="userSpaceOnUse"
       x1="20.152672"
       y1="13.745695"
       x2="40.305344"
       y2="48.977100" />
    <linearGradient
       inkscape:collect="always"
       xlink:href="#linearGradient1365"
       id="linearGradient1431"
       gradientUnits="userSpaceOnUse"
       x1="20.152672"
       y1="13.745695"
       x2="40.305344"
       y2="48.977100" />
    <linearGradient
       inkscape:collect="always"
       xlink:href="#linearGradient1378"
       id="linearGradient1433"
       gradientUnits="userSpaceOnUse"
       x1="20.152672"
       y1="18.931297"
       x2="43.480919"
       y2="43.603050" />
    <linearGradient
       inkscape:collect="always"
       xlink:href="#linearGradient1378"
       id="linearGradient1436"
       gradientUnits="userSpaceOnUse"
       x1="18.504625"
       y1="17.420588"
       x2="47.843750"
       y2="46.761806"
       gradientTransform="matrix(0.889325,0.000000,0.000000,0.889325,3.541600,3.541600)" />
    <linearGradient
       inkscape:collect="always"
       xlink:href="#linearGradient1365"
       id="linearGradient1439"
       gradientUnits="userSpaceOnUse"
       x1="20.152672"
       y1="13.745695"
       x2="40.305344"
       y2="48.977100"
       gradientTransform="matrix(0.889325,0.000000,0.000000,0.889325,3.541600,3.541600)" />
    <linearGradient
       inkscape:collect="always"
       xlink:href="#linearGradient1352"
       id="linearGradient1442"
       gradientUnits="userSpaceOnUse"
       x1="20.152672"
       y1="13.745695"
       x2="40.305344"
       y2="48.977100"
       gradientTransform="matrix(0.889325,0.000000,0.000000,0.889325,3.541600,3.541600)" />
    <linearGradient
       inkscape:collect="always"
       xlink:href="#linearGradient1352"
       id="linearGradient1449"
       gradientUnits="userSpaceOnUse"
       gradientTransform="matrix(0.889325,0.000000,0.000000,0.889325,3.541600,3.541600)"
       x1="20.152672"
       y1="13.745695"
       x2="40.305344"
       y2="48.977100" />
    <linearGradient
       inkscape:collect="always"
       xlink:href="#linearGradient1365"
       id="linearGradient1451"
       gradientUnits="userSpaceOnUse"
       gradientTransform="matrix(0.889325,0.000000,0.000000,0.889325,3.541600,3.541600)"
       x1="20.152672"
       y1="13.745695"
       x2="40.305344"
       y2="48.977100" />
    <linearGradient
       inkscape:collect="always"
       xlink:href="#linearGradient1378"
       id="linearGradient1453"
       gradientUnits="userSpaceOnUse"
       gradientTransform="matrix(0.889325,0.000000,0.000000,0.889325,3.541600,3.541600)"
       x1="18.504625"
       y1="17.420588"
       x2="47.843750"
       y2="46.761806" />
    <linearGradient
       inkscape:collect="always"
       xlink:href="#linearGradient1378"
       id="linearGradient1456"
       gradientUnits="userSpaceOnUse"
       gradientTransform="matrix(0.889325,0.000000,0.000000,0.889325,3.541593,3.541600)"
       x1="18.504625"
       y1="17.420588"
       x2="47.843750"
       y2="46.761806" />
    <linearGradient
       inkscape:collect="always"
       xlink:href="#linearGradient1365"
       id="linearGradient1459"
       gradientUnits="userSpaceOnUse"
       gradientTransform="matrix(0.889325,0.000000,0.000000,0.889325,-50.24727,-11.63251)"
       x1="20.152672"
       y1="13.745695"
       x2="40.305344"
       y2="48.977100" />
    <linearGradient
       inkscape:collect="always"
       xlink:href="#linearGradient1352"
       id="linearGradient1462"
       gradientUnits="userSpaceOnUse"
       gradientTransform="matrix(0.889325,0.000000,0.000000,0.889325,3.541600,3.541600)"
       x1="20.152672"
       y1="13.745695"
       x2="40.305344"
       y2="48.977100" />
    <linearGradient
       inkscape:collect="always"
       xlink:href="#linearGradient1378"
       id="linearGradient1466"
       gradientUnits="userSpaceOnUse"
       gradientTransform="matrix(0.889325,0.000000,0.000000,0.889325,-32.54864,2.451357)"
       x1="18.504625"
       y1="17.420588"
       x2="47.843750"
       y2="46.761806" />
    <linearGradient
       inkscape:collect="always"
       xlink:href="#linearGradient1365"
       id="linearGradient1470"
       gradientUnits="userSpaceOnUse"
       gradientTransform="matrix(0.889325,0.000000,0.000000,0.889325,-32.54864,2.451357)"
       x1="18.504625"
       y1="17.420588"
       x2="47.843750"
       y2="46.761806" />
    <linearGradient
       inkscape:collect="always"
       xlink:href="#linearGradient1378"
       id="linearGradient1474"
       gradientUnits="userSpaceOnUse"
       gradientTransform="matrix(0.889325,0.000000,0.000000,0.889325,3.541593,3.541600)"
       x1="18.504625"
       y1="17.420588"
       x2="47.843750"
       y2="46.761806" />
    <linearGradient
       inkscape:collect="always"
       xlink:href="#linearGradient1378"
       id="linearGradient1385"
       gradientUnits="userSpaceOnUse"
       gradientTransform="matrix(0.581470,-0.581470,0.581470,0.581470,-5.214087,32.00000)"
       x1="32.682953"
       y1="19.206007"
       x2="27.468960"
       y2="49.282398" />
    <linearGradient
       inkscape:collect="always"
       xlink:href="#linearGradient1365"
       id="linearGradient1388"
       gradientUnits="userSpaceOnUse"
       gradientTransform="matrix(0.581470,-0.581470,0.581470,0.581470,-5.209158,32.00000)"
       x1="36.463844"
       y1="6.1829467"
       x2="27.573986"
       y2="57.789398" />
    <linearGradient
       inkscape:collect="always"
       xlink:href="#linearGradient1352"
       id="linearGradient1392"
       gradientUnits="userSpaceOnUse"
       gradientTransform="matrix(0.581470,-0.581470,0.581470,0.581470,-5.214609,32.00115)"
       x1="36.304314"
       y1="6.2060790"
       x2="27.493591"
       y2="57.587868" />
    <linearGradient
       inkscape:collect="always"
       xlink:href="#linearGradient1352"
       id="linearGradient1375"
       gradientUnits="userSpaceOnUse"
       gradientTransform="matrix(0.581470,-0.581470,0.581470,0.581470,-5.214609,32.00115)"
       x1="36.304314"
       y1="6.2060790"
       x2="27.493591"
       y2="57.587868" />
    <linearGradient
       inkscape:collect="always"
       xlink:href="#linearGradient1365"
       id="linearGradient1377"
       gradientUnits="userSpaceOnUse"
       gradientTransform="matrix(0.581470,-0.581470,0.581470,0.581470,-5.209158,32.00000)"
       x1="36.463844"
       y1="6.1829467"
       x2="27.573986"
       y2="57.789398" />
    <linearGradient
       inkscape:collect="always"
       xlink:href="#linearGradient1378"
       id="linearGradient1379"
       gradientUnits="userSpaceOnUse"
       gradientTransform="matrix(0.581470,-0.581470,0.581470,0.581470,-5.214087,32.00000)"
       x1="32.682953"
       y1="19.206007"
       x2="27.468960"
       y2="49.282398" />
  </defs>
  <sodipodi:namedview
     id="base"
     pagecolor="#ffffff"
     bordercolor="#666666"
     borderopacity="1.0"
     inkscape:pageopacity="0.0"
     inkscape:pageshadow="2"
     inkscape:zoom="14.583333"
     inkscape:cx="18.000000"
     inkscape:cy="18.000000"
     inkscape:document-units="px"
     inkscape:current-layer="layer1"
     showgrid="false"
     inkscape:grid-bbox="true"
     inkscape:grid-points="true"
     inkscape:window-width="1156"
     inkscape:window-height="693"
     inkscape:window-x="0"
     inkscape:window-y="25"
     gridempspacing="4"
     showguides="false" />
  <metadata
     id="metadata7">
    <rdf:RDF>
      <cc:Work
         rdf:about="">
        <dc:format>image/svg+xml</dc:format>
        <dc:type
           rdf:resource="http://purl.org/dc/dcmitype/StillImage" />
        <dc:title>Add</dc:title>
        <dc:date>2005-10-30</dc:date>
        <dc:creator>
          <cc:Agent>
            <dc:title>Jean-Victor Balin</dc:title>
          </cc:Agent>
        </dc:creator>
        <dc:description>jean.victor.balin@gmail.com</dc:description>
        <cc:license
           rdf:resource="http://web.resource.org/cc/PublicDomain" />
        <dc:subject>
          <rdf:Bag>
            <rdf:li>icon</rdf:li>
          </rdf:Bag>
        </dc:subject>
      </cc:Work>
      <cc:License
         rdf:about="http://web.resource.org/cc/PublicDomain">
        <cc:permits
           rdf:resource="http://web.resource.org/cc/Reproduction" />
        <cc:permits
           rdf:resource="http://web.resource.org/cc/Distribution" />
        <cc:permits
           rdf:resource="http://web.resource.org/cc/DerivativeWorks" />
      </cc:License>
    </rdf:RDF>
  </metadata>
  <g
     inkscape:label="Calque 1"
     inkscape:groupmode="layer"
     id="layer1">
    <g
       id="g1370"
       transform="translate(-14.00000,-14.00000)">
      <path
         id="path1349"
         d="M 14.500567,35.392081 C 14.551405,35.934616 15.009279,36.347820 15.554167,36.342892 L 27.657732,36.342892 L 27.657732,48.446457 C 27.656418,48.726289 27.767001,48.995040 27.964875,49.192914 C 28.162749,49.390788 28.431500,49.501370 28.711332,49.500058 L 35.289915,49.500058 C 35.569748,49.501370 35.838499,49.390788 36.036373,49.192914 C 36.234247,48.995040 36.344829,48.726289 36.343516,48.446457 L 36.343517,36.342893 L 48.447080,36.342892 C 48.726913,36.344205 48.995664,36.233623 49.193538,36.035749 C 49.391412,35.837875 49.501994,35.569124 49.500681,35.289292 L 49.500681,28.710709 C 49.501995,28.430876 49.391412,28.162125 49.193538,27.964251 C 48.995664,27.766377 48.726913,27.655794 48.447080,27.657108 L 36.343517,27.657107 L 36.343516,15.553544 C 36.344830,15.273711 36.234247,15.004960 36.036374,14.807086 C 35.838499,14.609212 35.569748,14.498629 35.289915,14.499943 L 28.711332,14.499943 C 28.431500,14.498630 28.162749,14.609212 27.964875,14.807086 C 27.767001,15.004960 27.656419,15.273711 27.657732,15.553544 L 27.657732,27.657108 L 15.554167,27.657108 C 15.274335,27.655795 15.005584,27.766377 14.807710,27.964251 C 14.609836,28.162125 14.499254,28.430876 14.500566,28.710709 L 14.500566,35.289292 C 14.498887,35.323535 14.498887,35.357839 14.500567,35.392081 z "
         style="fill:url(#linearGradient1375);fill-opacity:1.0000000;stroke:none;stroke-width:2.0000000;stroke-linecap:round;stroke-linejoin:round;stroke-miterlimit:4.0000000;stroke-opacity:1.0000000" />
      <path
         id="path1468"
         d="M 15.429756,28.873861 C 15.343059,29.022322 15.300529,29.192442 15.307163,29.364236 L 15.307163,34.635764 C 15.309507,35.131305 15.710642,35.532441 16.206183,35.534785 L 28.465552,35.534785 L 28.465552,47.794153 C 28.467896,48.289694 28.869031,48.690830 29.364572,48.693174 L 34.636101,48.693174 C 35.131641,48.690830 35.532777,48.289694 35.535121,47.794153 L 35.535121,35.534785 L 47.794490,35.534785 C 48.290031,35.532440 48.691166,35.131305 48.693510,34.635764 L 48.693510,29.364236 C 48.691166,28.868695 48.290030,28.467559 47.794490,28.465215 L 35.535121,28.465215 L 35.535121,16.205847 C 35.532777,15.710306 35.131641,15.309170 34.636101,15.306826 L 29.364572,15.306826 C 28.869031,15.309170 28.467896,15.710306 28.465552,16.205847 L 28.465552,28.465215 L 16.206183,28.465215 C 15.894156,28.458149 15.600588,28.612659 15.429756,28.873861 z "
         style="fill:url(#linearGradient1377);fill-opacity:1.0000000;stroke:none;stroke-width:2.0000000;stroke-linecap:round;stroke-linejoin:round;stroke-miterlimit:4.0000000;stroke-opacity:1.0000000" />
      <path
         id="path1472"
         d="M 15.981092,29.262074 C 15.966870,29.294217 15.959894,29.329095 15.960659,29.364236 L 15.960659,34.635764 C 15.962795,34.679601 15.976932,34.722007 16.001524,34.758358 C 16.024255,34.802112 16.059931,34.837788 16.103685,34.860519 C 16.135828,34.874741 16.170706,34.881717 16.205847,34.880952 L 28.710403,34.880952 C 28.822572,34.878301 28.942285,34.908511 29.016887,34.983113 C 29.091489,35.057715 29.121698,35.177426 29.119048,35.289597 L 29.119048,47.794153 C 29.121184,47.837990 29.135321,47.880397 29.159913,47.916747 C 29.182644,47.960502 29.218320,47.996177 29.262074,48.018908 C 29.294217,48.033130 29.329095,48.040106 29.364236,48.039341 L 34.635764,48.039341 C 34.679601,48.037205 34.722007,48.023068 34.758358,47.998476 C 34.802112,47.975745 34.837788,47.940069 34.860519,47.896315 C 34.874741,47.864172 34.881717,47.829294 34.880952,47.794153 L 34.880952,35.289597 C 34.878301,35.177428 34.908511,35.057715 34.983113,34.983113 C 35.057712,34.908513 35.177425,34.878302 35.289597,34.880952 L 47.794153,34.880952 C 47.837990,34.878816 47.880397,34.864679 47.916747,34.840087 C 47.960502,34.817356 47.996177,34.781680 48.018909,34.737926 C 48.033130,34.705783 48.040106,34.670905 48.039341,34.635764 L 48.039341,29.364236 C 48.037205,29.320399 48.023068,29.277993 47.998476,29.241642 C 47.975745,29.197888 47.940069,29.162212 47.896315,29.139481 C 47.864172,29.125259 47.829294,29.118283 47.794153,29.119048 L 35.289597,29.119048 C 35.177428,29.121699 35.057715,29.091489 34.983113,29.016887 C 34.908513,28.942288 34.878302,28.822575 34.880952,28.710403 L 34.880952,16.205847 C 34.878816,16.162010 34.864679,16.119603 34.840087,16.083253 C 34.817356,16.039498 34.781680,16.003823 34.737926,15.981092 C 34.705783,15.966870 34.670905,15.959894 34.635764,15.960659 L 29.364236,15.960659 C 29.320399,15.962795 29.277993,15.976932 29.241642,16.001524 C 29.197888,16.024255 29.162212,16.059931 29.139481,16.103685 C 29.125259,16.135828 29.118283,16.170706 29.119048,16.205847 L 29.119048,28.710403 C 29.121699,28.822572 29.091489,28.942285 29.016887,29.016887 C 28.942285,29.091489 28.822574,29.121698 28.710403,29.119048 L 16.205847,29.119048 C 16.162010,29.121184 16.119603,29.135321 16.083253,29.159913 C 16.039498,29.182644 16.003823,29.218320 15.981092,29.262074 z "
         style="fill:url(#linearGradient1379);fill-opacity:1.0000000;stroke:none;stroke-width:2.0000000;stroke-linecap:round;stroke-linejoin:round;stroke-miterlimit:4.0000000;stroke-opacity:1.0000000" />
    </g>
  </g>
</svg>
