<?xml version="1.0" encoding="utf-8"?>
<!-- Generator: Adobe Illustrator 15.0.2, SVG Export Plug-In . SVG Version: 6.00 Build 0)  -->
<!DOCTYPE svg PUBLIC "-//W3C//DTD SVG 1.1//EN" "http://www.w3.org/Graphics/SVG/1.1/DTD/svg11.dtd">
<svg version="1.1"
	 id="svg2" sodipodi:docname="add.svg" inkscape:export-xdpi="90.000000" xmlns:sodipodi="http://inkscape.sourceforge.net/DTD/sodipodi-0.dtd" sodipodi:version="0.32" xmlns:rdf="http://www.w3.org/1999/02/22-rdf-syntax-ns#" xmlns:svg="http://www.w3.org/2000/svg" xmlns:inkscape="http://www.inkscape.org/namespaces/inkscape" xmlns:cc="http://web.resource.org/cc/" xmlns:dc="http://purl.org/dc/elements/1.1/" inkscape:export-ydpi="90.000000" sodipodi:docbase="G:\Projs\Cliparts Stocker\released" inkscape:export-filename="/datas/wiki/add.png" inkscape:version="0.42"
	 xmlns="http://www.w3.org/2000/svg" xmlns:xlink="http://www.w3.org/1999/xlink" x="0px" y="0px" width="36px" height="36px"
	 viewBox="0 0 36 36" enable-background="new 0 0 36 36" xml:space="preserve">
<sodipodi:namedview  inkscape:grid-bbox="true" showgrid="false" inkscape:pageopacity="0.0" showguides="false" inkscape:current-layer="layer1" id="base" inkscape:pageshadow="2" inkscape:zoom="14.583333" inkscape:cy="18.000000" inkscape:document-units="px" inkscape:window-height="693" inkscape:cx="18.000000" inkscape:window-y="25" inkscape:grid-points="true" inkscape:window-width="1156" gridempspacing="4" pagecolor="#ffffff" bordercolor="#666666" inkscape:window-x="0" borderopacity="1.0">
	</sodipodi:namedview>
<sodipodi:namedview  inkscape:grid-bbox="true" showgrid="false" inkscape:pageopacity="0.0" showguides="false" inkscape:current-layer="layer1" id="base" inkscape:pageshadow="2" inkscape:zoom="14.583333" inkscape:cy="18.000000" inkscape:document-units="px" inkscape:window-height="693" inkscape:cx="18.000000" inkscape:window-y="25" inkscape:grid-points="true" inkscape:window-width="1156" gridempspacing="4" pagecolor="#ffffff" bordercolor="#666666" inkscape:window-x="0" borderopacity="1.0">
	</sodipodi:namedview>
<g>
	<linearGradient id="SVGID_1_" gradientUnits="userSpaceOnUse" x1="17.9995" y1="0.9375" x2="17.9995" y2="35.063">
		<stop  offset="0" style="stop-color:#5CFF5F"/>
		<stop  offset="1" style="stop-color:#008B2A"/>
	</linearGradient>
	<polygon fill="url(#SVGID_1_)" points="14,35.062 14,22 0.938,22 0.938,14 14,14 14,0.938 22,0.938 22,14 35.062,14 35.062,22 
		22,22 22,35.062 	"/>
	<path fill="#008B2A" d="M21.625,1.312v12.312v0.75h0.75h12.312v7.25H22.375h-0.75v0.75v12.312h-7.25V22.375v-0.75h-0.75H1.312
		v-7.25h12.312h0.75v-0.75V1.312H21.625 M22.375,0.562h-8.75v13.062H0.562v8.75h13.062v13.062h8.75V22.375h13.062v-8.75H22.375
		V0.562L22.375,0.562z"/>
</g>
</svg>
