<?xml version="1.0" encoding="utf-8"?>
<!-- Generator: Adobe Illustrator 15.0.2, SVG Export Plug-In . SVG Version: 6.00 Build 0)  -->
<!DOCTYPE svg PUBLIC "-//W3C//DTD SVG 1.1//EN" "http://www.w3.org/Graphics/SVG/1.1/DTD/svg11.dtd">
<svg version="1.1"
	 id="svg1" sodipodi:docname="gnome-mime-application-vnd.ms-excel.svg" xmlns:sodipodi="http://sodipodi.sourceforge.net/DTD/sodipodi-0.dtd" sodipodi:version="0.32" xmlns:inkscape="http://www.inkscape.org/namespaces/inkscape" sodipodi:docbase="/home/andy/Desktop/etiquette-icons-0.3/scalable/mimetypes" inkscape:version="0.39cvs"
	 xmlns="http://www.w3.org/2000/svg" xmlns:xlink="http://www.w3.org/1999/xlink" x="0px" y="0px" width="149.157px"
	 height="162.994px" viewBox="16.659 4.735 149.157 162.994" enable-background="new 16.659 4.735 149.157 162.994"
	 xml:space="preserve">
<sodipodi:namedview  showborder="true" showgrid="false" inkscape:pageopacity="0.0" snaptoguides="true" showguides="true" id="base" inkscape:pageshadow="2" inkscape:zoom="1.9655569" inkscape:cy="34.255320" inkscape:window-height="550" inkscape:cx="86.959374" inkscape:window-y="113" inkscape:window-width="445" pagecolor="#ffffff" bordercolor="#666666" inkscape:window-x="23" borderopacity="1.0" snaptogrid="true">
	</sodipodi:namedview>
<polygon fill="#FFFFFF" stroke="#848484" stroke-miterlimit="10" points="117.945,5.235 17.159,5.235 17.159,153.413 
	151.779,153.413 151.779,43.069 "/>
<path id="path1582_1_" fill="#5B5B5B" fill-opacity="0.434" d="M30.829,61.368v1.096v12.948v1.097V88.36v1.097v11.853v1.096v11.852
	v1.097v11.829v1.097v11.853v1.096h1.014h34.908h1.014h1.014h33.872h1.014h1.014h34.907h1.014v-1.096v-12.949v-1.096v-11.83v-1.096
	V101.31v-1.097V88.36v-1.096V75.412v-1.096V62.464v-1.096h-1.014h-34.907h-1.014H68.778h-1.014H31.843H30.829z M32.856,63.56h33.895
	v10.756H32.856V63.56z M68.778,63.56h33.872v10.756H68.778V63.56z M104.678,63.56h33.894v10.756h-33.894V63.56z M32.856,76.509
	h33.895v10.756H32.856V76.509z M68.778,76.509h33.872v10.756H68.778V76.509z M104.678,76.509h33.894v10.756h-33.894V76.509z
	 M32.856,89.457h33.895v10.756H32.856V89.457z M68.778,89.457h33.872v10.756H68.778V89.457z M104.678,89.457h33.894v10.756h-33.894
	V89.457z M32.856,102.405h33.895v10.756H32.856V102.405z M68.778,102.405h33.872v10.756H68.778V102.405z M104.678,102.405h33.894
	v10.756h-33.894V102.405z M32.856,115.354h33.895v10.733H32.856V115.354z M68.778,115.354h33.872v10.733H68.778V115.354z
	 M104.678,115.354h33.894v10.733h-33.894V115.354z M32.856,128.279h33.895v10.756H32.856V128.279z M68.778,128.279h33.872v10.756
	H68.778V128.279z M104.678,128.279h33.894v10.756h-33.894V128.279z"/>
<rect id="rect1534_1_" x="30.788" y="25.935" fill="#5B5B5B" fill-opacity="0.434" width="74.377" height="20.954"/>
<polygon fill="#FFFFFF" stroke="#848484" stroke-linejoin="bevel" stroke-miterlimit="10" points="117.945,5.235 151.779,43.069 
	117.945,43.069 "/>
<g>
	<circle fill="#DD3A3A" cx="127.907" cy="129.957" r="37.771"/>
	<path fill="#73C647" d="M127.907,92.186v37.908l-29.751,23.12c6.914,8.832,17.666,14.515,29.751,14.515
		c20.86,0,37.771-16.91,37.771-37.771S148.768,92.186,127.907,92.186z"/>
	<path fill="#4D8CE8" d="M127.907,92.186v37.908l35.362,13.661c1.639-4.24,2.547-8.843,2.547-13.661
		C165.816,109.157,148.845,92.186,127.907,92.186z"/>
</g>
</svg>
