<?xml version="1.0" standalone="yes"?>

<svg version="1.1" viewBox="0.0 0.0 187.76902887139107 132.41994750656167" fill="none" stroke="none" stroke-linecap="square" stroke-miterlimit="10" xmlns="http://www.w3.org/2000/svg" xmlns:xlink="http://www.w3.org/1999/xlink"><clipPath id="p.0"><path d="m0 0l187.76903 0l0 132.41995l-187.76903 0l0 -132.41995z" clip-rule="nonzero"></path></clipPath><g clip-path="url(#p.0)"><path fill="#000000" fill-opacity="0.0" d="m0 0l187.76903 0l0 132.41995l-187.76903 0z" fill-rule="evenodd"></path><path fill="#ffffff" d="m27.67979 66.20998l0 0c0 -36.56386 29.640865 -66.20473 66.20473 -66.20473l0 0c17.558586 0 34.398018 6.9751205 46.813805 19.390915c12.415802 12.415794 19.390915 29.255226 19.390915 46.813812l0 0c0 36.563858 -29.640854 66.20473 -66.20472 66.20473l0 0c-36.563858 0 -66.20473 -29.64087 -66.20473 -66.20473z" fill-rule="evenodd"></path><path fill="#00af00" d="m59.664043 36.611572l0 0c0 -2.9358406 2.3799667 -5.3158092 5.3158073 -5.3158092l57.809326 0c1.4098434 0 2.76194 0.5600567 3.75885 1.556963c0.99690247 0.9969101 1.5569687 2.3490067 1.5569687 3.7588463l0 59.195152c0 2.9358444 -2.3799744 5.315811 -5.315819 5.315811l-57.809326 0c-2.9358406 0 -5.3158073 -2.3799667 -5.3158073 -5.315811z" fill-rule="evenodd"></path><path fill="#ffffff" d="m62.17323 40.325546l0 0c0 -2.3570442 1.9107628 -4.267803 4.267803 -4.267803l17.070694 0l0 0c1.1318893 0 2.2174225 0.44964218 3.0177917 1.2500114c0.80036926 0.80036545 1.2500076 1.8858986 1.2500076 3.0177917l0 19.275417c0 2.3570442 -1.910759 4.267803 -4.2677994 4.267803l-17.070694 0l0 0c-2.3570404 0 -4.267803 -1.910759 -4.267803 -4.267803z" fill-rule="evenodd"></path><path fill="#ffffff" d="m61.587925 74.95538l0 0c0 -2.200447 1.7838135 -3.984253 3.9842567 -3.984253l56.818893 0c1.056694 0 2.0700989 0.4197693 2.8172913 1.1669617c0.7471924 0.7471924 1.1669617 1.7605972 1.1669617 2.8172913l0 0l0 0c0 2.2004395 -1.7838135 3.984253 -3.984253 3.984253l-56.818893 0c-2.2004433 0 -3.9842567 -1.7838135 -3.9842567 -3.984253z" fill-rule="evenodd"></path><path fill="#ffffff" d="m61.587925 90.77409l0 0c0 -2.2004395 1.7838135 -3.984253 3.9842567 -3.984253l56.818893 0c1.056694 0 2.0700989 0.4197693 2.8172913 1.1669617c0.7471924 0.7471924 1.1669617 1.7606049 1.1669617 2.8172913l0 0l0 0c0 2.2004395 -1.7838135 3.984253 -3.984253 3.984253l-56.818893 0c-2.2004433 0 -3.9842567 -1.7838135 -3.9842567 -3.984253z" fill-rule="evenodd"></path><path fill="#ffffff" d="m91.5538 43.317585l0 0c0 -2.2004395 1.7838135 -3.984253 3.984253 -3.984253l26.866142 0c1.056694 0 2.0700989 0.4197693 2.8172913 1.1669617c0.7471924 0.7471924 1.1669617 1.760601 1.1669617 2.8172913l0 0l0 0c0 2.2004433 -1.7838058 3.984253 -3.984253 3.984253l-26.866142 0c-2.2004395 0 -3.984253 -1.7838097 -3.984253 -3.984253z" fill-rule="evenodd"></path><path fill="#ffffff" d="m91.5538 59.13593l0 0c0 -2.2004395 1.7838135 -3.984253 3.984253 -3.984253l26.866142 0c1.056694 0 2.0700989 0.4197693 2.8172913 1.1669617c0.7471924 0.7471924 1.1669617 1.760601 1.1669617 2.8172913l0 0l0 0c0 2.2004433 -1.7838058 3.984253 -3.984253 3.984253l-26.866142 0c-2.2004395 0 -3.984253 -1.7838097 -3.984253 -3.984253z" fill-rule="evenodd"></path></g></svg>

