<?xml version="1.0" standalone="yes"?>

<svg version="1.1" viewBox="0.0 0.0 187.76902887139107 132.41994750656167" fill="none" stroke="none" stroke-linecap="square" stroke-miterlimit="10" xmlns="http://www.w3.org/2000/svg" xmlns:xlink="http://www.w3.org/1999/xlink"><clipPath id="p.0"><path d="m0 0l187.76903 0l0 132.41995l-187.76903 0l0 -132.41995z" clip-rule="nonzero"></path></clipPath><g clip-path="url(#p.0)"><path fill="#000000" fill-opacity="0.0" d="m0 0l187.76903 0l0 132.41995l-187.76903 0z" fill-rule="evenodd"></path><path fill="#ffffff" d="m27.67979 66.20998l0 0c0 -36.56386 29.640865 -66.20473 66.20473 -66.20473l0 0c17.558586 0 34.398018 6.9751205 46.813805 19.390915c12.415802 12.415794 19.390915 29.255226 19.390915 46.813812l0 0c0 36.563858 -29.640854 66.20473 -66.20472 66.20473l0 0c-36.563858 0 -66.20473 -29.64087 -66.20473 -66.20473z" fill-rule="evenodd"></path><path fill="#000000" fill-opacity="0.0" d="m27.67979 71.67013c4.93132 0 21.714348 3.394577 29.587925 0c7.873581 -3.394577 12.370079 -27.053368 17.653542 -20.367455c5.28347 6.685913 8.427383 64.52012 14.047249 60.48294c5.619858 -4.0371857 12.333328 -78.7021 19.671913 -84.70604c7.338585 -6.003937 17.163605 40.62555 24.359581 48.68242c7.1959686 8.056862 14.343826 -0.26246643 18.816269 -0.3412094c4.4724426 -0.07874298 6.6819763 -0.10935974 8.018372 -0.13123322" fill-rule="evenodd"></path><path stroke="#4a86e8" stroke-width="4.0" stroke-linejoin="round" stroke-linecap="butt" d="m27.67979 71.67013c4.93132 0 21.714348 3.394577 29.587925 0c7.873581 -3.394577 12.370079 -27.053368 17.653542 -20.367455c5.28347 6.685913 8.427383 64.52012 14.047249 60.48294c5.619858 -4.0371857 12.333328 -78.7021 19.671913 -84.70604c7.338585 -6.003937 17.163605 40.62555 24.359581 48.68242c7.1959686 8.056862 14.343826 -0.26246643 18.816269 -0.3412094c4.4724426 -0.07874298 6.6819763 -0.10935974 8.018372 -0.13123322" fill-rule="evenodd"></path></g></svg>

